<svg xmlns="http://www.w3.org/2000/svg" width="207" height="69.433" viewBox="0 0 207 69.433"><defs><style>.a,.b,.c,.d{fill:#fff;}.b{opacity:0.388;}.c{opacity:0.463;}.d{opacity:0.422;}.e{font-size:30px;}.e,.f{font-family:Gilroy-ExtraBold;font-weight:800;}.f{font-size:31px;}</style></defs><g transform="translate(-189 -89.567)"><rect class="a" width="125" height="33" transform="translate(271 124)"/><rect class="a" width="102" height="30" transform="translate(271 93)"/><g transform="translate(189 89.567)"><g transform="translate(0)"><path class="a" d="M475.4,243.149H463.548c.408-2.342.912-4.416,1.1-6.517.423-4.627-1.3-6.823-5.927-7.279a54.939,54.939,0,0,0-10.893-.364,152.421,152.421,0,0,0-17.375,2.812c-7.728,1.715-10.94.351-12.956-8.045-2.137-8.9-.716-17.714,2.188-26.281,2.31-6.81,5.167-13.36,10.809-18.175,3.944-3.366,7.522-4.837,12.5-.2a107.59,107.59,0,0,0,42.686,24.3c2.788.847,4.147,2.322,4.032,5.4-.22,5.893-.142,11.8-.219,17.7-.061,4.672-1.2,5.938-5.762,6.467-2.053.239-4.769-.265-5.984.862-1.257,1.166-1.047,3.9-1.5,5.948C476.036,240.75,475.766,241.709,475.4,243.149ZM418.987,215a71.553,71.553,0,0,0,.821,7.5c.426,2.152,1.062,4.473,3.748,5.116,2.825.676,4.741-.731,6.55-2.676,4.026-4.329,6.2-9.64,8.106-15.073a49.419,49.419,0,0,0,2.822-21.015c-.3-3.338-.823-7.352-4.626-8.306-3.671-.921-6.221,1.96-8.165,4.85C422.447,194.006,419.623,203.6,418.987,215Z" transform="translate(-416.475 -176.168)"/></g><path class="b" d="M436,253.065s19.6-5.278,30.161-1.508c0,0,0,9.048-1.508,9.8H442.786S436.754,257.589,436,253.065Z" transform="translate(-421.278 -194.378)"/><path class="c" d="M467,185l27.145.754s7.54,2.262,8.294,8.294v8.294S471.524,193.294,467,185Z" transform="translate(-428.903 -178.34)"/><path class="d" d="M501,255.508s6.032.754,9.048-1.508A11.584,11.584,0,0,1,501,262.294Z" transform="translate(-437.266 -195.313)"/></g><text class="e" transform="translate(273 119)"><tspan x="0" y="0">MEDIA</tspan></text><text class="f" transform="translate(275 152)"><tspan x="0" y="0">COMMS</tspan></text></g></svg>