<svg xmlns="http://www.w3.org/2000/svg" width="227" height="75.79" viewBox="0 0 227 75.79"><defs><style>.a,.c{fill:#fff;}.b{fill:#e9b606;}.c{font-size:32px;}.c,.d{font-family:Gilroy-ExtraBold;font-weight:800;}.d{fill:#262a98;font-size:34px;}</style></defs><rect class="a" width="137" height="36" transform="translate(90 37.79)"/><rect class="b" width="111" height="33" transform="translate(90 3.79)"/><g transform="translate(0 0)"><g transform="translate(0)"><path class="b" d="M480.933,249.437H467.968c.446-2.562,1-4.83,1.208-7.129.463-5.062-1.419-7.464-6.484-7.962a60.1,60.1,0,0,0-11.915-.4,166.729,166.729,0,0,0-19.006,3.077c-8.453,1.876-11.967.384-14.172-8.8-2.338-9.74-.784-19.377,2.394-28.748,2.526-7.45,5.652-14.615,11.824-19.881,4.315-3.682,8.228-5.291,13.674-.219a117.691,117.691,0,0,0,46.693,26.586c3.049.926,4.536,2.54,4.41,5.906-.241,6.447-.155,12.906-.239,19.359-.067,5.111-1.318,6.5-6.3,7.074-2.246.261-5.217-.29-6.546.943-1.375,1.275-1.145,4.269-1.642,6.506C481.628,246.813,481.333,247.862,480.933,249.437Zm-61.71-30.8a78.284,78.284,0,0,0,.9,8.2c.466,2.354,1.161,4.893,4.1,5.6,3.091.739,5.186-.8,7.165-2.927,4.4-4.735,6.777-10.545,8.868-16.488a54.059,54.059,0,0,0,3.087-22.988c-.332-3.651-.9-8.043-5.06-9.085-4.015-1.007-6.8,2.144-8.932,5.305C423.008,195.68,419.919,206.17,419.223,218.642Z" transform="translate(-416.475 -176.168)"/></g><path class="a" d="M436,253.334s21.445-5.774,32.992-1.65c0,0,0,9.9-1.65,10.723h-23.92S436.825,258.283,436,253.334Z" transform="translate(-419.895 -189.137)"/><path class="a" d="M467,185l29.693.825s8.248,2.474,9.073,9.073v9.073S471.949,194.073,467,185Z" transform="translate(-425.327 -177.715)"/><path class="a" d="M501,255.65s6.6.825,9.9-1.65a12.671,12.671,0,0,1-9.9,9.073Z" transform="translate(-431.283 -189.803)"/></g><text class="c" transform="translate(92 31.79)"><tspan x="0" y="0">MEDIA</tspan></text><text class="d" transform="translate(94 67.79)"><tspan x="0" y="0">COMMS</tspan></text></svg>